<?xml version="1.0" encoding="utf-8"?>
<!-- Generator: Adobe Illustrator 16.0.0, SVG Export Plug-In . SVG Version: 6.00 Build 0)  -->
<!DOCTYPE svg PUBLIC "-//W3C//DTD SVG 1.1//EN" "http://www.w3.org/Graphics/SVG/1.1/DTD/svg11.dtd">
<svg version="1.1" id="Layer_1" xmlns="http://www.w3.org/2000/svg" xmlns:xlink="http://www.w3.org/1999/xlink" x="0px" y="0px"
	 width="100px" height="100px" viewBox="0 0 100 100" enable-background="new 0 0 100 100" xml:space="preserve">
<g id="Captions">
</g>
<g>
	<polygon fill="#6B6B6B" points="51.814,45.969 64.532,58.317 89.031,33.083 76.314,20.74 	"/>
	<polygon fill="#6B6B6B" points="61.248,61.704 48.528,49.356 43.158,66.769 	"/>
	<polygon fill="#6B6B6B" points="87.837,8.872 79.605,17.348 92.324,29.694 100.556,21.214 	"/>
	<g>
		<path fill="#6B6B6B" d="M76.734,52.656v19.801c0,3.692-3.006,6.698-6.697,6.698H30.301c-3.694,0-6.699-3.006-6.699-6.698V18.44
			c0-3.693,3.005-6.699,6.699-6.699h39.736c2.814,0,5.226,1.749,6.215,4.216l4.165-4.359C78.187,8.229,74.37,6,70.037,6H30.301
			C23.44,6,17.86,11.581,17.86,18.44v54.017c0,6.859,5.58,12.44,12.441,12.44h39.736c6.859,0,12.439-5.581,12.439-12.44v-26.3
			L76.734,52.656z"/>
	</g>
</g>
</svg>
